<svg width="25" height="24" viewBox="0 0 25 24" fill="none" xmlns="http://www.w3.org/2000/svg">
<path d="M22.39 11.6818C22.39 17.3051 17.8314 21.8636 12.2082 21.8636C6.58492 21.8636 2.02637 17.3051 2.02637 11.6818C2.02637 6.05855 6.58492 1.5 12.2082 1.5C17.8314 1.5 22.39 6.05855 22.39 11.6818ZM3.02814 11.6818C3.02814 16.7518 7.13819 20.8619 12.2082 20.8619C17.2782 20.8619 21.3882 16.7518 21.3882 11.6818C21.3882 6.61182 17.2782 2.50177 12.2082 2.50177C7.13819 2.50177 3.02814 6.61182 3.02814 11.6818Z" fill="#F7F6FF"/>
<path d="M20.0264 12C20.0264 16.4183 16.4446 20 12.0264 20C7.60809 20 4.02637 16.4183 4.02637 12C4.02637 7.58172 7.60809 4 12.0264 4C16.4446 4 20.0264 7.58172 20.0264 12ZM5.43436 12C5.43436 15.6407 8.3857 18.592 12.0264 18.592C15.667 18.592 18.6184 15.6407 18.6184 12C18.6184 8.35933 15.667 5.40799 12.0264 5.40799C8.3857 5.40799 5.43436 8.35933 5.43436 12Z" fill="#F7F6FF"/>
<mask id="mask0" mask-type="alpha" maskUnits="userSpaceOnUse" x="0" y="0" width="25" height="24">
<path d="M24.0264 12C24.0264 18.6274 18.6538 24 12.0264 24C5.39895 24 0.0263672 18.6274 0.0263672 12C0.0263672 5.37258 5.39895 0 12.0264 0C18.6538 0 24.0264 5.37258 24.0264 12ZM0.846185 12C0.846185 18.1746 5.85172 23.1802 12.0264 23.1802C18.201 23.1802 23.2066 18.1746 23.2066 12C23.2066 5.82536 18.201 0.819818 12.0264 0.819818C5.85172 0.819818 0.846185 5.82536 0.846185 12Z" fill="#C4C4C4"/>
</mask>
<g mask="url(#mask0)">
<path d="M9.61311 3.29478C7.06179 0.284595 12.6142 -3.62168 16.4607 -2.74141L23.2681 -1.18353C26.526 -0.43796 29.4168 4.14798 26.6936 6.08552C26.4558 6.25472 10.0834 3.84966 9.61311 3.29478Z" fill="#F7F6FF"/>
<rect x="2.02637" y="18" width="6.54545" height="5.45455" rx="2" fill="#F7F6FF"/>
<rect x="19" y="8" width="7" height="8" fill="#F7F6FF"/>
</g>
<mask id="mask1" mask-type="alpha" maskUnits="userSpaceOnUse" x="1" y="1" width="22" height="22">
<path d="M22.3597 11.6667C22.3597 17.5577 17.5841 22.3333 11.693 22.3333C5.802 22.3333 1.02637 17.5577 1.02637 11.6667C1.02637 5.77563 5.802 1 11.693 1C17.5841 1 22.3597 5.77563 22.3597 11.6667ZM1.42591 11.6667C1.42591 17.337 6.02266 21.9338 11.693 21.9338C17.3634 21.9338 21.9602 17.337 21.9602 11.6667C21.9602 5.99629 17.3634 1.39954 11.693 1.39954C6.02266 1.39954 1.42591 5.99629 1.42591 11.6667Z" fill="#C4C4C4"/>
</mask>
<g mask="url(#mask1)">
<rect x="-1.37402" y="12.8223" width="4.97778" height="5.68889" rx="2" fill="#F7F6FF"/>
<rect x="3" y="17" width="5.68889" height="5.68889" rx="1" fill="#F7F6FF"/>
<rect x="15" y="14" width="7.46667" height="5.68889" fill="#F7F6FF"/>
<rect x="1.11475" y="2.51123" width="4.97778" height="5.68889" rx="2" fill="#F7F6FF"/>
</g>
<path d="M11.2444 8.32325C11.4644 8.25325 11.7044 8.21825 11.9644 8.21825C12.2244 8.21825 12.4244 8.23325 12.5644 8.26325C12.5144 8.43325 12.4644 8.83825 12.4144 9.47825C12.3744 10.1083 12.3544 10.5933 12.3544 10.9333C12.6944 10.9333 13.1794 10.9133 13.8094 10.8733C14.4494 10.8233 14.8544 10.7733 15.0244 10.7233C15.0544 10.8633 15.0694 11.0633 15.0694 11.3233C15.0694 11.5833 15.0344 11.8233 14.9644 12.0433C14.2044 11.9733 13.3344 11.9283 12.3544 11.9083C12.3544 12.9883 12.3994 13.8583 12.4894 14.5183C12.2694 14.5883 12.0294 14.6233 11.7694 14.6233C11.5094 14.6233 11.3094 14.6083 11.1694 14.5783C11.2794 14.1383 11.3494 13.2483 11.3794 11.9083C10.0394 11.9383 9.14938 12.0083 8.70938 12.1183C8.67938 11.9783 8.66438 11.7783 8.66438 11.5183C8.66438 11.2583 8.69938 11.0183 8.76938 10.7983C9.42938 10.8883 10.2994 10.9333 11.3794 10.9333C11.3594 9.95325 11.3144 9.08325 11.2444 8.32325Z" fill="#F7F6FF"/>
<path d="M11.2444 8.32325L10.7896 6.89386L9.64006 7.25961L9.7507 8.46083L11.2444 8.32325ZM12.5644 8.26325L14.0034 8.6865L14.4597 7.13533L12.8787 6.79655L12.5644 8.26325ZM12.4144 9.47825L10.9189 9.36142L10.9181 9.37231L10.9174 9.3832L12.4144 9.47825ZM12.3544 10.9333H10.8544V12.4333H12.3544V10.9333ZM13.8094 10.8733L13.9044 12.3702L13.9153 12.3695L13.9262 12.3687L13.8094 10.8733ZM15.0244 10.7233L16.4911 10.409L16.1523 8.82798L14.6011 9.2842L15.0244 10.7233ZM14.9644 12.0433L14.8268 13.5369L16.028 13.6476L16.3938 12.4981L14.9644 12.0433ZM12.3544 11.9083L12.385 10.4086L10.8544 10.3773V11.9083H12.3544ZM12.4894 14.5183L12.9442 15.9476L14.146 15.5652L13.9756 14.3156L12.4894 14.5183ZM11.1694 14.5783L9.71416 14.2144L9.33782 15.7198L10.8551 16.045L11.1694 14.5783ZM11.3794 11.9083L12.879 11.9418L12.9141 10.3735L11.3458 10.4086L11.3794 11.9083ZM8.70938 12.1183L7.24267 12.4325L7.5678 13.9498L9.07318 13.5735L8.70938 12.1183ZM8.76938 10.7983L8.97204 9.31201L7.72239 9.1416L7.33999 10.3434L8.76938 10.7983ZM11.3794 10.9333V12.4333H12.9103L12.8791 10.9026L11.3794 10.9333ZM11.6992 9.75264C11.7549 9.73492 11.8395 9.71825 11.9644 9.71825V6.71825C11.5692 6.71825 11.1739 6.77158 10.7896 6.89386L11.6992 9.75264ZM11.9644 9.71825C12.0672 9.71825 12.1435 9.72128 12.1972 9.7253C12.2539 9.72955 12.2672 9.73362 12.2501 9.72996L12.8787 6.79655C12.5838 6.73336 12.2594 6.71825 11.9644 6.71825V9.71825ZM11.1253 7.84C11.0219 8.19166 10.9652 8.76976 10.9189 9.36142L13.9098 9.59508C13.9339 9.28637 13.9569 9.04971 13.9781 8.87829C13.9886 8.79272 13.9977 8.73198 14.0047 8.69183C14.0128 8.64521 14.0139 8.65088 14.0034 8.6865L11.1253 7.84ZM10.9174 9.3832C10.8768 10.023 10.8544 10.5454 10.8544 10.9333H13.8544C13.8544 10.6411 13.872 10.1935 13.9114 9.5733L10.9174 9.3832ZM12.3544 12.4333C12.7423 12.4333 13.2646 12.4109 13.9044 12.3702L13.7143 9.37627C13.0941 9.41564 12.6465 9.43325 12.3544 9.43325V12.4333ZM13.9262 12.3687C14.5179 12.3225 15.096 12.2657 15.4476 12.1623L14.6011 9.2842C14.6368 9.27373 14.6424 9.27483 14.5958 9.28293C14.5557 9.28992 14.4949 9.29899 14.4093 9.30955C14.2379 9.33072 14.0013 9.35369 13.6925 9.37781L13.9262 12.3687ZM13.5577 11.0375C13.554 11.0205 13.5581 11.0337 13.5623 11.0904C13.5663 11.1441 13.5694 11.2204 13.5694 11.3233H16.5694C16.5694 11.0283 16.5543 10.7039 16.4911 10.409L13.5577 11.0375ZM13.5694 11.3233C13.5694 11.4481 13.5527 11.5328 13.535 11.5884L16.3938 12.4981C16.516 12.1137 16.5694 11.7184 16.5694 11.3233H13.5694ZM15.102 10.5496C14.2981 10.4755 13.3912 10.4291 12.385 10.4086L12.3238 13.4079C13.2775 13.4274 14.1107 13.471 14.8268 13.5369L15.102 10.5496ZM10.8544 11.9083C10.8544 13.02 10.9001 13.9656 11.0031 14.7209L13.9756 14.3156C13.8986 13.7509 13.8544 12.9565 13.8544 11.9083H10.8544ZM12.0346 13.0889C11.9789 13.1066 11.8942 13.1233 11.7694 13.1233V16.1233C12.1645 16.1233 12.5599 16.0699 12.9442 15.9476L12.0346 13.0889ZM11.7694 13.1233C11.6665 13.1233 11.5902 13.1202 11.5366 13.1162C11.4798 13.1119 11.4666 13.1079 11.4837 13.1115L10.8551 16.045C11.15 16.1081 11.4744 16.1233 11.7694 16.1233V13.1233ZM12.6246 14.9421C12.7819 14.3129 12.8496 13.2548 12.879 11.9418L9.87975 11.8747C9.84915 13.2417 9.77687 13.9636 9.71416 14.2144L12.6246 14.9421ZM11.3458 10.4086C10.0328 10.438 8.97476 10.5057 8.34557 10.663L9.07318 13.5735C9.32399 13.5108 10.0459 13.4385 11.4129 13.4079L11.3458 10.4086ZM10.1761 11.804C10.1797 11.821 10.1757 11.8078 10.1714 11.7511C10.1674 11.6974 10.1644 11.6211 10.1644 11.5183H7.16438C7.16438 11.8133 7.17948 12.1376 7.24267 12.4325L10.1761 11.804ZM10.1644 11.5183C10.1644 11.3934 10.181 11.3087 10.1988 11.2531L7.33999 10.3434C7.21771 10.7278 7.16438 11.1231 7.16438 11.5183H10.1644ZM8.56671 12.2845C9.32204 12.3875 10.2677 12.4333 11.3794 12.4333V9.43325C10.3311 9.43325 9.53671 9.38901 8.97204 9.31201L8.56671 12.2845ZM12.8791 10.9026C12.8585 9.89638 12.8121 8.98956 12.7381 8.18568L9.7507 8.46083C9.81666 9.17694 9.86022 10.0101 9.87969 10.9639L12.8791 10.9026Z" fill="#F7F7FF"/>
</svg>
