<svg width="29" height="39" viewBox="0 0 29 39" fill="none" xmlns="http://www.w3.org/2000/svg">
<path d="M1.15996 4.66755H6.95977C7.26741 4.66755 7.56245 4.79049 7.77999 5.00933C7.99752 5.22816 8.11973 5.52496 8.11973 5.83444H9.2797C9.2797 5.52496 9.40191 5.22816 9.61944 5.00933C9.83698 4.79049 10.132 4.66755 10.4397 4.66755V0H17.3994V4.66755H22.0393C25.1248 4.66755 28.5815 5.286 28.999 11.5172C29.0037 11.604 28.9911 11.6908 28.9621 11.7726C28.933 11.8545 28.8879 11.9297 28.8296 11.9938C28.7713 12.0579 28.7008 12.1096 28.6224 12.146C28.5439 12.1824 28.459 12.2027 28.3727 12.2057C28.2582 12.2033 28.1463 12.1712 28.0479 12.1123C26.065 10.9894 23.8149 10.4326 21.5405 10.502C21.3661 10.5025 21.1963 10.558 21.0549 10.6605C20.9134 10.7631 20.8074 10.9076 20.7517 11.0738L20.0557 13.1975C19.975 13.439 19.818 13.6473 19.6085 13.7906C19.399 13.9339 19.1487 14.0043 18.8958 13.991H17.3994V39H8.11973L10.4397 26.8384V14.0027C10.132 14.0027 9.83698 13.8797 9.61944 13.6609C9.40191 13.4421 9.2797 13.1452 9.2797 12.8358H8.11973C8.11973 13.1452 7.99752 13.4421 7.77999 13.6609C7.56245 13.8797 7.26741 14.0027 6.95977 14.0027H1.15996C0.852322 14.0027 0.55728 13.8797 0.339745 13.6609C0.12221 13.4421 0 13.1452 0 12.8358V5.83444C0 5.52496 0.12221 5.22816 0.339745 5.00933C0.55728 4.79049 0.852322 4.66755 1.15996 4.66755ZM2.31992 11.6689H5.79981V7.00133H2.31992V11.6689ZM18.5594 10.3503C18.7646 9.71713 19.1633 9.16529 19.6986 8.77347C20.2339 8.38164 20.8785 8.16982 21.5405 8.16822C23.0678 8.15444 24.5899 8.35074 26.0643 8.75166C25.2988 7.11802 23.9068 7.00133 22.0393 7.00133H11.5996V11.6689H18.0954L18.5594 10.3503ZM9.2797 8.16822H8.11973V10.502H9.2797V8.16822ZM15.0795 2.33378H12.7596V4.66755H15.0795V2.33378ZM12.7596 27.3519L11.0544 36.6662H15.0795V14.0027H12.7596V27.0951V27.3519Z" fill="url(#paint0_linear)"/>
<defs>
<linearGradient id="paint0_linear" x1="17.1633" y1="3.47353" x2="12.1673" y2="29.0107" gradientUnits="userSpaceOnUse">
<stop stop-color="#814D2C"/>
<stop offset="1" stop-color="#814D2C" stop-opacity="0.7"/>
</linearGradient>
</defs>
</svg>
