<svg width="26" height="34" viewBox="0 0 26 34" fill="none" xmlns="http://www.w3.org/2000/svg">
<path d="M25.0164 6.70027H3.15764C1.41672 6.70027 3.57894e-05 5.19646 3.57894e-05 3.35012C3.57894e-05 1.50366 1.41675 3.76698e-05 3.15764 3.76698e-05H21.9397C22.4838 3.76698e-05 22.9232 0.467211 22.9232 1.0432C22.9232 1.61918 22.4838 2.08636 21.9397 2.08636H3.15764C2.50062 2.08636 1.96713 2.65322 1.96713 3.35012C1.96713 4.04713 2.50062 4.61399 3.15764 4.61399H25.0164C25.5604 4.61399 26 5.0812 26 5.65719C26 6.23295 25.5604 6.70027 25.0164 6.70027ZM25.0164 34H3.15764C1.41672 34 3.57894e-05 32.4964 3.57894e-05 30.6489C3.57894e-05 30.0729 0.439425 29.6057 0.98358 29.6057C1.52777 29.6057 1.96716 30.0729 1.96716 30.6489C1.96716 31.347 2.50065 31.9138 3.15768 31.9138H25.0165C25.5604 31.9138 26 32.381 26 32.9569C25.9999 33.5329 25.5604 34 25.0164 34ZM0.983545 31.692C0.43939 31.692 3.57894e-05 31.2248 3.57894e-05 30.6489V3.35012C3.57894e-05 2.77436 0.43939 2.30688 0.983545 2.30688C1.52774 2.30688 1.96713 2.77428 1.96713 3.35012L1.96716 30.6489C1.96716 31.2247 1.52774 31.692 0.983545 31.692ZM25.0164 34C24.4722 34 24.0326 33.5328 24.0326 32.9568V5.65715C24.0326 5.08116 24.4723 4.61399 25.0164 4.61399C25.5604 4.61399 26 5.0812 26 5.65719L26 32.9569C25.9999 33.5329 25.5604 34 25.0164 34ZM21.9397 6.70027C21.3957 6.70027 20.9561 6.23299 20.9561 5.65715V1.04316C20.9561 0.467173 21.3957 3.76698e-05 21.9397 3.76698e-05C22.4838 3.76698e-05 22.9232 0.467211 22.9232 1.0432V5.65715C22.9232 6.23295 22.4836 6.70027 21.9397 6.70027Z" fill="url(#paint0_linear)"/>
<defs>
<linearGradient id="paint0_linear" x1="10.6122" y1="3.16279" x2="15.2269" y2="26.3885" gradientUnits="userSpaceOnUse">
<stop stop-color="#814D2C"/>
<stop offset="1" stop-color="#814D2C" stop-opacity="0.7"/>
</linearGradient>
</defs>
</svg>
