<svg width="38" height="34" viewBox="0 0 38 34" fill="none" xmlns="http://www.w3.org/2000/svg">
<path d="M37.9829 17.3423L35.8216 13.3392H32.2706V5.71432L29.5252 2.92431L27.7561 4.72222L29.7682 6.76707V13.3392H19.4178L19.2941 9.69139L13.9953 2.69037H6.04914V0H3.40184V16.3242C2.45546 17.1906 1.65829 18.226 1.06148 19.3611C0.835539 19.79 0.639444 20.2362 0.473188 20.6868C0.272829 21.2283 0.1151 21.7915 0 22.3634L2.4512 22.8703C2.54072 22.4327 2.66008 21.9952 2.81781 21.5793C2.9457 21.2283 3.09917 20.8861 3.27395 20.5568C3.31658 20.4745 3.36347 20.3922 3.41037 20.3099V25.3484C3.39758 25.5347 3.38905 25.7209 3.38905 25.9116C3.38905 26.1022 3.39758 26.2885 3.41037 26.4748V26.5354H3.41463C3.73009 30.7074 7.17029 34 11.3523 34C15.2486 34 18.5012 31.1407 19.179 27.3759H25.8335C25.7568 27.7398 25.7142 28.1167 25.7142 28.5066C25.7142 31.4483 28.0673 33.8397 30.9619 33.8397C33.8564 33.8397 36.2096 31.4483 36.2096 28.5066C36.2096 28.1167 36.1669 27.7398 36.0902 27.3759H38V17.3423H37.9829ZM12.9381 5.38073L14.7925 7.8025L16.6468 10.4929V13.1832H6.04914V5.38073H12.9381ZM11.3395 31.4613C8.32982 31.4613 5.87862 28.9702 5.87862 25.9116C5.87862 22.853 8.32982 20.3619 11.3395 20.3619C14.3491 20.3619 16.8003 22.853 16.8003 25.9116C16.8003 28.9702 14.3491 31.4613 11.3395 31.4613ZM30.9491 31.301C29.4357 31.301 28.2037 30.0489 28.2037 28.511C28.2037 26.973 29.4357 25.721 30.9491 25.721C32.4624 25.721 33.6944 26.973 33.6944 28.511C33.6944 30.0489 32.4624 31.301 30.9491 31.301ZM30.9491 23.1779C29.457 23.1779 28.1057 23.8147 27.1508 24.8372H19.2302C18.7101 20.8818 15.3722 17.8231 11.3395 17.8231C9.3103 17.8231 7.45591 18.5986 6.04914 19.8767V15.8823H34.3424L35.4849 17.9964V24.8415H34.7516C33.7925 23.8147 32.4411 23.1779 30.9491 23.1779ZM9.51918 25.8769C9.51918 26.121 9.56649 26.3627 9.65839 26.5882C9.7503 26.8136 9.88501 27.0185 10.0548 27.1911C10.2246 27.3637 10.4263 27.5006 10.6481 27.594C10.87 27.6874 11.1078 27.7355 11.348 27.7355C11.5882 27.7355 11.826 27.6874 12.0478 27.594C12.2697 27.5006 12.4713 27.3637 12.6412 27.1911C12.811 27.0185 12.9457 26.8136 13.0376 26.5882C13.1295 26.3627 13.1768 26.121 13.1768 25.8769C13.1768 25.6328 13.1295 25.3912 13.0376 25.1657C12.9457 24.9402 12.811 24.7353 12.6412 24.5627C12.4713 24.3901 12.2697 24.2532 12.0478 24.1598C11.826 24.0664 11.5882 24.0183 11.348 24.0183C11.1078 24.0183 10.87 24.0664 10.6481 24.1598C10.4263 24.2532 10.2246 24.3901 10.0548 24.5627C9.88501 24.7353 9.7503 24.9402 9.65839 25.1657C9.56649 25.3912 9.51918 25.6328 9.51918 25.8769Z" fill="url(#paint0_linear)"/>
<defs>
<linearGradient id="paint0_linear" x1="15.5102" y1="3.16279" x2="18.7327" y2="26.8673" gradientUnits="userSpaceOnUse">
<stop stop-color="#814D2C"/>
<stop offset="1" stop-color="#814D2C" stop-opacity="0.7"/>
</linearGradient>
</defs>
</svg>
