<svg width="20" height="18" viewBox="0 0 20 18" fill="none" xmlns="http://www.w3.org/2000/svg">
<path d="M16.6543 15.3546C12.6412 19.0319 6.38596 18.7588 2.70868 14.7458C-0.9686 10.7327 -0.694429 4.47689 3.31776 0.800398C3.5296 0.61261 3.80675 0.515596 4.08946 0.530274C4.37217 0.544952 4.63779 0.670146 4.82904 0.878862C5.02029 1.08758 5.12186 1.3631 5.11184 1.64601C5.10182 1.92892 4.98102 2.19657 4.77549 2.39123C1.64026 5.26414 1.42682 10.1526 4.29973 13.2878C7.17264 16.4231 12.0614 16.6351 15.1957 13.7629C18.3301 10.8908 18.5429 6.00295 15.67 2.86773C15.4822 2.65589 15.3852 2.37873 15.3999 2.09602C15.4145 1.81331 15.5397 1.5477 15.7484 1.35644C15.9572 1.16519 16.2327 1.06362 16.5156 1.07364C16.7985 1.08366 17.0662 1.20446 17.2608 1.41C20.9396 5.4229 20.6664 11.6782 16.6543 15.3546Z" fill="white"/>
</svg>
