<svg width="18" height="18" viewBox="0 0 18 18" fill="none" xmlns="http://www.w3.org/2000/svg">
<path d="M0 9.24524C0 13.2802 2.52252 16.7136 6.02703 17.9722C6.49549 18.0925 6.42342 17.7501 6.42342 17.5188V15.9177C3.69369 16.2509 3.58559 14.3907 3.3964 14.0853C3.02703 13.4375 2.15315 13.271 2.41441 12.9563C3.03604 12.6231 3.66667 13.0396 4.40541 14.1501C4.93694 14.9553 5.97297 14.8165 6.49549 14.6869C6.61261 14.2057 6.84685 13.7707 7.1982 13.4283C4.36937 12.91 3.18919 11.1332 3.18919 9.02314C3.18919 8.00514 3.52252 7.06118 4.16216 6.30231C3.75676 5.05296 4.1982 3.97943 4.26126 3.82211C5.43243 3.71105 6.63964 4.68278 6.73874 4.75681C7.40541 4.57172 8.16216 4.47918 9.00901 4.47918C9.86486 4.47918 10.6216 4.58098 11.2883 4.76607C11.5135 4.59023 12.6396 3.75733 13.7297 3.85913C13.7838 4.01645 14.2252 5.06221 13.8378 6.29306C14.4865 7.05193 14.8198 8.00514 14.8198 9.03239C14.8198 11.1424 13.6306 12.9193 10.8018 13.4283C11.2883 13.928 11.5676 14.6036 11.5676 15.3069V17.6298C11.5856 17.8149 11.5676 18 11.8739 18C15.4324 16.7692 18 13.308 18 9.23599C18 4.13676 13.973 0 9 0C4.02703 0 0 4.13676 0 9.24524Z" fill="#FFF176" fill-opacity="0.4"/>
</svg>
