<svg width="24" height="24" viewBox="0 0 24 24" fill="none" xmlns="http://www.w3.org/2000/svg">
<mask id="path-1-inside-1" fill="white">
<path d="M22.3636 11.6818C22.3636 17.3051 17.8051 21.8636 12.1818 21.8636C6.55855 21.8636 2 17.3051 2 11.6818C2 6.05855 6.55855 1.5 12.1818 1.5C17.8051 1.5 22.3636 6.05855 22.3636 11.6818ZM3.00177 11.6818C3.00177 16.7518 7.11182 20.8619 12.1818 20.8619C17.2518 20.8619 21.3619 16.7518 21.3619 11.6818C21.3619 6.61182 17.2518 2.50177 12.1818 2.50177C7.11182 2.50177 3.00177 6.61182 3.00177 11.6818Z"/>
</mask>
<path d="M22.3636 11.6818C22.3636 17.3051 17.8051 21.8636 12.1818 21.8636C6.55855 21.8636 2 17.3051 2 11.6818C2 6.05855 6.55855 1.5 12.1818 1.5C17.8051 1.5 22.3636 6.05855 22.3636 11.6818ZM3.00177 11.6818C3.00177 16.7518 7.11182 20.8619 12.1818 20.8619C17.2518 20.8619 21.3619 16.7518 21.3619 11.6818C21.3619 6.61182 17.2518 2.50177 12.1818 2.50177C7.11182 2.50177 3.00177 6.61182 3.00177 11.6818Z" fill="#E1AB3B" stroke="#E1AB3B" stroke-width="2" mask="url(#path-1-inside-1)"/>
<mask id="path-2-inside-2" fill="white">
<path d="M20 12C20 16.4183 16.4183 20 12 20C7.58172 20 4 16.4183 4 12C4 7.58172 7.58172 4 12 4C16.4183 4 20 7.58172 20 12ZM5.40799 12C5.40799 15.6407 8.35933 18.592 12 18.592C15.6407 18.592 18.592 15.6407 18.592 12C18.592 8.35933 15.6407 5.40799 12 5.40799C8.35933 5.40799 5.40799 8.35933 5.40799 12Z"/>
</mask>
<path d="M20 12C20 16.4183 16.4183 20 12 20C7.58172 20 4 16.4183 4 12C4 7.58172 7.58172 4 12 4C16.4183 4 20 7.58172 20 12ZM5.40799 12C5.40799 15.6407 8.35933 18.592 12 18.592C15.6407 18.592 18.592 15.6407 18.592 12C18.592 8.35933 15.6407 5.40799 12 5.40799C8.35933 5.40799 5.40799 8.35933 5.40799 12Z" fill="#E1AB3B" stroke="#E1AB3B" stroke-width="2" mask="url(#path-2-inside-2)"/>
<mask id="mask0" mask-type="alpha" maskUnits="userSpaceOnUse" x="0" y="0" width="24" height="24">
<mask id="path-3-inside-3" mask-type="luminance" fill="white">
<path d="M24 12C24 18.6274 18.6274 24 12 24C5.37258 24 0 18.6274 0 12C0 5.37258 5.37258 0 12 0C18.6274 0 24 5.37258 24 12ZM0.819818 12C0.819818 18.1746 5.82536 23.1802 12 23.1802C18.1746 23.1802 23.1802 18.1746 23.1802 12C23.1802 5.82536 18.1746 0.819818 12 0.819818C5.82536 0.819818 0.819818 5.82536 0.819818 12Z"/>
</mask>
<path d="M24 12C24 18.6274 18.6274 24 12 24C5.37258 24 0 18.6274 0 12C0 5.37258 5.37258 0 12 0C18.6274 0 24 5.37258 24 12ZM0.819818 12C0.819818 18.1746 5.82536 23.1802 12 23.1802C18.1746 23.1802 23.1802 18.1746 23.1802 12C23.1802 5.82536 18.1746 0.819818 12 0.819818C5.82536 0.819818 0.819818 5.82536 0.819818 12Z" fill="#C4C4C4" stroke="#E1AB3B" stroke-width="2" mask="url(#path-3-inside-3)"/>
</mask>
<g mask="url(#mask0)">
<path d="M9.91975 2.91296C9.433 2.30679 9.35029 1.69176 9.52064 1.09613C9.70463 0.452778 10.1989 -0.209505 10.9246 -0.791415C12.3862 -1.96337 14.5835 -2.65141 16.3232 -2.25328L23.1307 -0.695401C24.594 -0.360519 26.0225 0.862058 26.7566 2.23985C27.1206 2.92309 27.2918 3.60428 27.2413 4.19532C27.1958 4.7272 26.9707 5.20813 26.4939 5.59113C26.4874 5.59075 26.4806 5.59034 26.4736 5.58989C26.3514 5.58213 26.1717 5.56563 25.9382 5.54053C25.4732 5.49056 24.8172 5.40897 24.0309 5.304C22.4593 5.09421 20.3794 4.79263 18.2914 4.46833C16.2028 4.14394 14.1105 3.79749 12.5131 3.49801C11.7134 3.34808 11.0441 3.2111 10.5633 3.09552C10.3217 3.03745 10.137 2.98698 10.0104 2.94528C9.97125 2.93236 9.94149 2.92153 9.91975 2.91296ZM9.88343 2.89739C9.87682 2.8942 9.87402 2.89251 9.87428 2.89246C9.87453 2.89242 9.87784 2.89402 9.88343 2.89739Z" fill="#E1AB3B" stroke="#E1AB3B"/>
<rect x="2.5" y="18.5" width="5.54545" height="4.45455" rx="1.5" fill="#E1AB3B" stroke="#E1AB3B"/>
<rect x="19.4727" y="8.5" width="6" height="7" fill="#E1AB3B" stroke="#E1AB3B"/>
</g>
<mask id="mask1" mask-type="alpha" maskUnits="userSpaceOnUse" x="1" y="1" width="22" height="22">
<mask id="path-7-inside-4" mask-type="luminance" fill="white">
<path d="M22.3333 11.6667C22.3333 17.5577 17.5577 22.3333 11.6667 22.3333C5.77563 22.3333 1 17.5577 1 11.6667C1 5.77563 5.77563 1 11.6667 1C17.5577 1 22.3333 5.77563 22.3333 11.6667ZM1.39954 11.6667C1.39954 17.337 5.99629 21.9338 11.6667 21.9338C17.337 21.9338 21.9338 17.337 21.9338 11.6667C21.9338 5.99629 17.337 1.39954 11.6667 1.39954C5.99629 1.39954 1.39954 5.99629 1.39954 11.6667Z"/>
</mask>
<path d="M22.3333 11.6667C22.3333 17.5577 17.5577 22.3333 11.6667 22.3333C5.77563 22.3333 1 17.5577 1 11.6667C1 5.77563 5.77563 1 11.6667 1C17.5577 1 22.3333 5.77563 22.3333 11.6667ZM1.39954 11.6667C1.39954 17.337 5.99629 21.9338 11.6667 21.9338C17.337 21.9338 21.9338 17.337 21.9338 11.6667C21.9338 5.99629 17.337 1.39954 11.6667 1.39954C5.99629 1.39954 1.39954 5.99629 1.39954 11.6667Z" fill="#C4C4C4" stroke="#E1AB3B" stroke-width="2" mask="url(#path-7-inside-4)"/>
</mask>
<g mask="url(#mask1)">
<rect x="-0.900391" y="13.3223" width="3.97778" height="4.68889" rx="1.5" fill="#E1AB3B" stroke="#E1AB3B"/>
<rect x="3.47266" y="17.5" width="4.68889" height="4.68889" rx="0.5" fill="#E1AB3B" stroke="#E1AB3B"/>
<rect x="15.4727" y="14.5" width="6.46667" height="4.68889" fill="#E1AB3B" stroke="#E1AB3B"/>
<rect x="1.58789" y="3.01172" width="3.97778" height="4.68889" rx="1.5" fill="#E1AB3B" stroke="#E1AB3B"/>
</g>
<path d="M11.217 8.32398C11.437 8.25398 11.677 8.21898 11.937 8.21898C12.197 8.21898 12.397 8.23398 12.537 8.26398C12.487 8.43398 12.437 8.83898 12.387 9.47898C12.347 10.109 12.327 10.594 12.327 10.934C12.667 10.934 13.152 10.914 13.782 10.874C14.422 10.824 14.827 10.774 14.997 10.724C15.027 10.864 15.042 11.064 15.042 11.324C15.042 11.584 15.007 11.824 14.937 12.044C14.177 11.974 13.307 11.929 12.327 11.909C12.327 12.989 12.372 13.859 12.462 14.519C12.242 14.589 12.002 14.624 11.742 14.624C11.482 14.624 11.282 14.609 11.142 14.579C11.252 14.139 11.322 13.249 11.352 11.909C10.012 11.939 9.12203 12.009 8.68203 12.119C8.65203 11.979 8.63703 11.779 8.63703 11.519C8.63703 11.259 8.67203 11.019 8.74203 10.799C9.40203 10.889 10.272 10.934 11.352 10.934C11.332 9.95398 11.287 9.08398 11.217 8.32398Z" fill="#E1AB3B"/>
<path d="M11.217 8.32398L10.7622 6.89459L9.61272 7.26035L9.72335 8.46156L11.217 8.32398ZM12.537 8.26398L13.9761 8.68723L14.4323 7.13606L12.8513 6.79728L12.537 8.26398ZM12.387 9.47898L10.8916 9.36215L10.8907 9.37304L10.89 9.38394L12.387 9.47898ZM12.327 10.934H10.827V12.434H12.327V10.934ZM13.782 10.874L13.8771 12.371L13.888 12.3703L13.8989 12.3694L13.782 10.874ZM14.997 10.724L16.4637 10.4097L16.125 8.82871L14.5738 9.28494L14.997 10.724ZM14.937 12.044L14.7995 13.5377L16.0007 13.6483L16.3664 12.4988L14.937 12.044ZM12.327 11.909L12.3576 10.4093L10.827 10.3781V11.909H12.327ZM12.462 14.519L12.9168 15.9484L14.1187 15.566L13.9483 14.3163L12.462 14.519ZM11.142 14.579L9.68682 14.2152L9.31047 15.7206L10.8277 16.0457L11.142 14.579ZM11.352 11.909L12.8517 11.9426L12.8868 10.3742L11.3185 10.4094L11.352 11.909ZM8.68203 12.119L7.21533 12.4333L7.54046 13.9505L9.04584 13.5742L8.68203 12.119ZM8.74203 10.799L8.9447 9.31274L7.69505 9.14233L7.31264 10.3442L8.74203 10.799ZM11.352 10.934V12.434H12.883L12.8517 10.9034L11.352 10.934ZM11.6718 9.75337C11.7275 9.73565 11.8122 9.71898 11.937 9.71898V6.71898C11.5419 6.71898 11.1465 6.77232 10.7622 6.89459L11.6718 9.75337ZM11.937 9.71898C12.0399 9.71898 12.1162 9.72201 12.1698 9.72603C12.2266 9.73029 12.2398 9.73435 12.2227 9.73069L12.8513 6.79728C12.5564 6.73409 12.232 6.71898 11.937 6.71898V9.71898ZM11.098 7.84073C10.9946 8.19239 10.9378 8.7705 10.8916 9.36215L13.8825 9.59582C13.9066 9.28711 13.9296 9.05044 13.9507 8.87902C13.9613 8.79345 13.9704 8.73271 13.9773 8.69256C13.9855 8.64594 13.9866 8.65161 13.9761 8.68723L11.098 7.84073ZM10.89 9.38394C10.8494 10.0237 10.827 10.5461 10.827 10.934H13.827C13.827 10.6419 13.8446 10.1942 13.884 9.57403L10.89 9.38394ZM12.327 12.434C12.7149 12.434 13.2373 12.4116 13.8771 12.371L13.687 9.377C13.0668 9.41638 12.6191 9.43398 12.327 9.43398V12.434ZM13.8989 12.3694C14.4905 12.3232 15.0686 12.2665 15.4203 12.163L14.5738 9.28494C14.6094 9.27446 14.6151 9.27556 14.5685 9.28367C14.5283 9.29065 14.4676 9.29972 14.382 9.31029C14.2106 9.33145 13.9739 9.35442 13.6652 9.37854L13.8989 12.3694ZM13.5303 11.0383C13.5267 11.0212 13.5307 11.0345 13.535 11.0912C13.539 11.1448 13.542 11.2211 13.542 11.324H16.542C16.542 11.029 16.5269 10.7046 16.4637 10.4097L13.5303 11.0383ZM13.542 11.324C13.542 11.4489 13.5254 11.5335 13.5076 11.5892L16.3664 12.4988C16.4887 12.1145 16.542 11.7191 16.542 11.324H13.542ZM15.0746 10.5503C14.2707 10.4763 13.3639 10.4298 12.3576 10.4093L12.2964 13.4087C13.2502 13.4281 14.0833 13.4717 14.7995 13.5377L15.0746 10.5503ZM10.827 11.909C10.827 13.0207 10.8728 13.9663 10.9758 14.7217L13.9483 14.3163C13.8713 13.7516 13.827 12.9573 13.827 11.909H10.827ZM12.0072 13.0896C11.9515 13.1073 11.8669 13.124 11.742 13.124V16.124C12.1372 16.124 12.5325 16.0707 12.9168 15.9484L12.0072 13.0896ZM11.742 13.124C11.6392 13.124 11.5629 13.121 11.5092 13.1169C11.4525 13.1127 11.4392 13.1086 11.4563 13.1123L10.8277 16.0457C11.1226 16.1089 11.447 16.124 11.742 16.124V13.124ZM12.5972 14.9428C12.7545 14.3136 12.8223 13.2555 12.8517 11.9426L9.85241 11.8754C9.8218 13.2424 9.74952 13.9644 9.68682 14.2152L12.5972 14.9428ZM11.3185 10.4094C10.0055 10.4388 8.94741 10.5065 8.31823 10.6638L9.04584 13.5742C9.29665 13.5115 10.0186 13.4392 11.3856 13.4086L11.3185 10.4094ZM10.1487 11.8047C10.1524 11.8218 10.1483 11.8085 10.1441 11.7518C10.1401 11.6982 10.137 11.6218 10.137 11.519H7.13703C7.13703 11.814 7.15214 12.1384 7.21533 12.4333L10.1487 11.8047ZM10.137 11.519C10.137 11.3941 10.1537 11.3095 10.1714 11.2538L7.31264 10.3442C7.19036 10.7285 7.13703 11.1239 7.13703 11.519H10.137ZM8.53936 12.2852C9.29469 12.3882 10.2403 12.434 11.352 12.434V9.43398C10.3038 9.43398 9.50937 9.38974 8.9447 9.31274L8.53936 12.2852ZM12.8517 10.9034C12.8312 9.89711 12.7848 8.99029 12.7107 8.18641L9.72335 8.46156C9.78931 9.17767 9.83288 10.0109 9.85234 10.9646L12.8517 10.9034Z" fill="#E1AB3B"/>
</svg>
