<svg width="15" height="15" viewBox="0 0 15 15" fill="none" xmlns="http://www.w3.org/2000/svg">
<path d="M11.9167 12.6944H2.58333C2.15556 12.6944 1.80556 12.3444 1.80556 11.9167V2.58333C1.80556 2.15556 2.15556 1.80556 2.58333 1.80556H6.47222C6.9 1.80556 7.25 1.45556 7.25 1.02778C7.25 0.6 6.9 0.25 6.47222 0.25H1.80556C0.942222 0.25 0.25 0.95 0.25 1.80556V12.6944C0.25 13.55 0.95 14.25 1.80556 14.25H12.6944C13.55 14.25 14.25 13.55 14.25 12.6944V8.02778C14.25 7.6 13.9 7.25 13.4722 7.25C13.0444 7.25 12.6944 7.6 12.6944 8.02778V11.9167C12.6944 12.3444 12.3444 12.6944 11.9167 12.6944ZM8.80556 1.02778C8.80556 1.45556 9.15556 1.80556 9.58333 1.80556H11.5978L4.49667 8.90667C4.19333 9.21 4.19333 9.7 4.49667 10.0033C4.8 10.3067 5.29 10.3067 5.59333 10.0033L12.6944 2.90222V4.91667C12.6944 5.34444 13.0444 5.69444 13.4722 5.69444C13.9 5.69444 14.25 5.34444 14.25 4.91667V1.02778C14.25 0.6 13.9 0.25 13.4722 0.25H9.58333C9.15556 0.25 8.80556 0.6 8.80556 1.02778Z" fill="#E1AB3B"/>
</svg>
