<svg width="18" height="18" viewBox="0 0 18 18" fill="none" xmlns="http://www.w3.org/2000/svg">
<path d="M9 0C4.05 0 0 4.05 0 9C0 13.95 4.05 18 9 18C13.95 18 18 13.95 18 9C18 4.05 13.95 0 9 0ZM12.771 11.754C12.771 11.862 12.888 11.979 12.888 12.258L13.617 12.816H10.467L11.196 12.258C11.304 12.141 11.367 12.033 11.367 11.916C11.421 11.691 11.421 11.52 11.421 11.295V6.975C11.421 6.921 11.367 6.921 11.313 6.921C11.259 6.921 11.196 6.921 11.196 6.975L9.504 10.908C9.396 11.187 9.279 11.466 9.162 11.808C9.045 12.15 8.937 12.429 8.82 12.762H8.478L5.904 6.858C5.85 6.858 5.85 6.804 5.796 6.804C5.742 6.75 5.742 6.804 5.742 6.858V11.187C5.742 11.412 5.742 11.637 5.796 11.862C5.85 11.979 5.904 12.087 6.021 12.204C6.075 12.258 6.192 12.312 6.246 12.312L6.921 12.708H4.05L4.833 12.312L4.941 12.204C5.049 12.15 5.112 11.979 5.112 11.862C5.166 11.637 5.166 11.412 5.166 11.187V6.3C5.166 6.075 5.166 5.904 5.112 5.742C5.112 5.571 5.058 5.463 4.941 5.4C4.941 5.346 4.887 5.292 4.833 5.292L3.996 4.95H6.579L8.937 10.521C8.937 10.575 8.991 10.575 8.991 10.575L9.045 10.521L11.421 4.95H13.896L12.996 5.346L12.825 5.517C12.771 5.625 12.708 5.796 12.708 5.967V11.142C12.708 11.358 12.708 11.529 12.771 11.754Z" fill="#FFF176" fill-opacity="0.4"/>
</svg>
