<svg width="24" height="24" viewBox="0 0 24 24" fill="none" xmlns="http://www.w3.org/2000/svg">
<path d="M12 24C5.37262 24 0 18.6274 0 12C0 5.37262 5.37262 0 12 0C18.6274 0 24 5.37262 24 12C24 18.6274 18.6274 24 12 24ZM14.1307 11.9937L17.1816 8.94281C17.7344 8.39002 17.7344 7.49353 17.1816 6.94059C16.6288 6.38777 15.7323 6.38777 15.1793 6.94059L12.1286 9.99169L9.07767 6.94071C8.52485 6.38791 7.62837 6.38791 7.07541 6.94071C6.52261 7.49353 6.52261 8.3899 7.07541 8.94284L10.1264 11.9937L7.07555 15.0446C6.52275 15.5974 6.52275 16.4938 7.07555 17.0467C7.62837 17.5995 8.52471 17.5995 9.07767 17.0467L12.1285 13.9959L15.1795 17.0467C15.7323 17.5995 16.6286 17.5995 17.1816 17.0467C17.7344 16.4939 17.7344 15.5974 17.1816 15.0445L14.1307 11.9937Z" fill="white"/>
</svg>
