<svg width="24" height="24" viewBox="0 0 24 24" fill="none" xmlns="http://www.w3.org/2000/svg">
<path d="M12 24C5.37254 24 0 18.6275 0 12C0 5.37254 5.37254 0 12 0C18.6275 0 24 5.37254 24 12C24 18.6275 18.6275 24 12 24ZM16.5972 8.38042L11.0669 14.3061C10.991 14.3873 10.887 14.4365 10.7761 14.4435C10.6652 14.4506 10.5558 14.4149 10.4703 14.3439L7.3753 11.7727C7.17759 11.6084 6.92332 11.5283 6.66715 11.5495C6.41098 11.5707 6.17336 11.6916 6.00538 11.8861C5.92277 11.9819 5.85983 12.0929 5.82014 12.2129C5.78045 12.333 5.7648 12.4596 5.77407 12.5857C5.78334 12.7118 5.81736 12.8348 5.87417 12.9478C5.93099 13.0607 6.0095 13.1614 6.10522 13.244L6.10541 13.2442L10.1574 16.7376C10.3269 16.8838 10.5462 16.959 10.7697 16.9478C10.9933 16.9366 11.2039 16.8397 11.358 16.6773L17.9647 9.71194C18.1403 9.52671 18.2359 9.27976 18.2308 9.02455C18.2257 8.76934 18.1203 8.5264 17.9374 8.34835C17.8479 8.26126 17.742 8.1929 17.6258 8.14729C17.5096 8.10167 17.3854 8.07971 17.2606 8.0827C17.1358 8.08568 17.0128 8.11356 16.8989 8.16468C16.785 8.2158 16.6824 8.28915 16.5972 8.38042Z" fill="white"/>
</svg>
