<svg width="24" height="24" viewBox="0 0 24 24" fill="none" xmlns="http://www.w3.org/2000/svg">
<g clip-path="url(#clip0)">
<mask id="path-1-inside-1" fill="white">
<path d="M24.0001 12C24.0001 18.6274 18.6275 24 12.0001 24C5.3727 24 9.1939e-05 18.6274 5.92282e-05 12C2.65173e-05 5.37258 5.37258 0 12 0C18.6274 0 24 5.37258 24.0001 12ZM3.04767 12C3.04769 16.9443 7.05583 20.9524 12.0001 20.9524C16.9444 20.9524 20.9525 16.9443 20.9524 12C20.9524 7.05573 16.9443 3.04761 12 3.04761C7.05575 3.04761 3.04765 7.05573 3.04767 12Z"/>
</mask>
<path d="M24.0001 12C24.0001 18.6274 18.6275 24 12.0001 24C5.3727 24 9.1939e-05 18.6274 5.92282e-05 12C2.65173e-05 5.37258 5.37258 0 12 0C18.6274 0 24 5.37258 24.0001 12ZM3.04767 12C3.04769 16.9443 7.05583 20.9524 12.0001 20.9524C16.9444 20.9524 20.9525 16.9443 20.9524 12C20.9524 7.05573 16.9443 3.04761 12 3.04761C7.05575 3.04761 3.04765 7.05573 3.04767 12Z" stroke="#6F4123" stroke-opacity="0.3" stroke-width="4" mask="url(#path-1-inside-1)"/>
<mask id="path-2-inside-2" fill="white">
<path d="M6.01932 20.6012C5.53887 21.2922 4.5813 21.4694 3.95675 20.9054C1.99505 19.1336 0.66182 16.752 0.189259 14.1224C-0.283301 11.4928 0.137307 8.79607 1.3594 6.45221C1.74848 5.70598 2.70786 5.53877 3.39881 6.01922C4.08977 6.49967 4.24679 7.44573 3.89033 8.20808C3.11181 9.87312 2.85937 11.7501 3.18882 13.5834C3.51827 15.4167 4.40845 17.0884 5.71798 18.3782C6.31757 18.9687 6.49976 19.9103 6.01932 20.6012Z"/>
</mask>
<path d="M6.01932 20.6012C5.53887 21.2922 4.5813 21.4694 3.95675 20.9054C1.99505 19.1336 0.66182 16.752 0.189259 14.1224C-0.283301 11.4928 0.137307 8.79607 1.3594 6.45221C1.74848 5.70598 2.70786 5.53877 3.39881 6.01922C4.08977 6.49967 4.24679 7.44573 3.89033 8.20808C3.11181 9.87312 2.85937 11.7501 3.18882 13.5834C3.51827 15.4167 4.40845 17.0884 5.71798 18.3782C6.31757 18.9687 6.49976 19.9103 6.01932 20.6012Z" stroke="#A005FF" stroke-width="4" mask="url(#path-2-inside-2)"/>
</g>
<defs>
<clipPath id="clip0">
<rect width="24" height="24" fill="white"/>
</clipPath>
</defs>
</svg>
