<svg width="380" height="100" viewBox="0 0 380 100" fill="none" xmlns="http://www.w3.org/2000/svg">
<path fill-rule="evenodd" clip-rule="evenodd" d="M235.29 0H10C4.47715 0 0 4.47716 0 10V46.9459L3.79712 51.8365H0V90C0 95.5229 4.47716 100 10 100H266.924L270.029 96L273.135 100H370C375.523 100 380 95.5228 380 90V82H373C371.895 82 371 81.1046 371 80V74C371 72.8954 371.895 72 373 72H380V64H373C371.895 64 371 63.1046 371 62V56C371 54.8954 371.895 54 373 54H380V46H373C371.895 46 371 45.1046 371 44V38C371 36.8954 371.895 36 373 36H380V28H373C371.895 28 371 27.1046 371 26V20C371 18.8954 371.895 18 373 18H380V10C380 4.47715 375.523 0 370 0H329.491L327.843 2.83993L323.131 0H241.899L240.187 2.95126L235.29 0Z" fill="#EEC796"/>
<g filter="url(#filter0_dii)">
<path fill-rule="evenodd" clip-rule="evenodd" d="M249.831 6H282.936L284.652 6.48986L285.004 6H362C364.209 6 366 7.79086 366 10V12.8927L364.172 13.1373L366 13.6591V18.0997L363.261 19.1991L366 19.0036V68.2354L363.194 68.8221L366 69.5555V89.3076L362.259 90.0897L365.866 91.0322C365.41 92.7411 363.852 94 362 94H52C50.2561 94 48.7729 92.884 48.2255 91.3273L50.9991 90.0001L48.0391 90.5618C48.0133 90.3783 48 90.1907 48 90V21.5873L52.6759 19.6574L48 18.2826V13.3824L51.7406 9.42188L48.0007 9.92313C48.0417 7.74947 49.8165 6 52 6H74.2081L76.3622 7.07592L81.775 6H247.763L249.479 6.48986L249.831 6ZM249.323 13.8232L250.024 13.0898L247.218 13.3719L249.323 13.8232ZM106.075 58.8984L105.162 60.1695L102.421 59.3873L106.075 58.8984Z" fill="#E1B986"/>
</g>
<mask id="mask0" style="mask-type:alpha" maskUnits="userSpaceOnUse" x="0" y="0" width="380" height="100">
<path fill-rule="evenodd" clip-rule="evenodd" d="M235.29 0H10C4.47715 0 0 4.47716 0 10V46.9459L3.79712 51.8365H0V90C0 95.5229 4.47716 100 10 100H266.924L270.029 96L273.135 100H370C375.523 100 380 95.5228 380 90V82H373C371.895 82 371 81.1046 371 80V74C371 72.8954 371.895 72 373 72H380V64H373C371.895 64 371 63.1046 371 62V56C371 54.8954 371.895 54 373 54H380V46H373C371.895 46 371 45.1046 371 44V38C371 36.8954 371.895 36 373 36H380V28H373C371.895 28 371 27.1046 371 26V20C371 18.8954 371.895 18 373 18H380V10C380 4.47715 375.523 0 370 0H329.491L327.843 2.83993L323.131 0H241.899L240.187 2.95126L235.29 0Z" fill="#EEC796"/>
<path fill-rule="evenodd" clip-rule="evenodd" d="M250.197 6H283.197L284.908 6.48986L285.259 6H362C364.209 6 366 7.79086 366 10V12.8927L364.177 13.1373L366 13.6592V18.1L363.27 19.1991L366 19.0037V68.2355L363.203 68.8221L366 69.5555V89.3075L362.271 90.0897L365.866 91.0322C365.41 92.7411 363.852 94 362 94H53C51.7415 94 50.6187 93.4188 49.8854 92.5101L53.9786 91.709L49.2873 91.4915C49.102 91.0306 49 90.5272 49 90V19.8757L53.6618 19.6574L49 18.2824V10.9118L52.7294 9.42188L49.0007 9.9232C49.0417 7.74951 50.8165 6 53 6H75.1261L77.2734 7.07592L82.6692 6H248.135L249.846 6.48986L250.197 6ZM249.689 13.8232L250.388 13.0898L247.591 13.3719L249.689 13.8232ZM106.892 58.8984L105.981 60.1695L103.249 59.3873L106.892 58.8984Z" fill="#E1B986"/>
</mask>
<g mask="url(#mask0)">
<mask id="path-5-inside-1" fill="white">
<path fill-rule="evenodd" clip-rule="evenodd" d="M15 0C10.5817 0 7 3.58172 7 8V92C7 96.4183 10.5817 100 15 100H371C375.418 100 379 96.4183 379 92V80H376.5C376.224 80 376 79.7761 376 79.5V74.5C376 74.2239 376.224 74 376.5 74H379V62H376.5C376.224 62 376 61.7761 376 61.5V56.5C376 56.2239 376.224 56 376.5 56H379V44H376.5C376.224 44 376 43.7761 376 43.5V38.5C376 38.2239 376.224 38 376.5 38H379V26H376.5C376.224 26 376 25.7761 376 25.5V23V20.5V17H379V8C379 3.58172 375.418 0 371 0H15Z"/>
</mask>
<path d="M379 80H380.5V78.5H379V80ZM379 74V75.5H380.5V74H379ZM379 62H380.5V60.5H379V62ZM379 56V57.5H380.5V56H379ZM379 44H380.5V42.5H379V44ZM379 38V39.5H380.5V38H379ZM379 26H380.5V24.5H379V26ZM376 17V15.5H374.5V17H376ZM379 17V18.5H380.5V17H379ZM8.5 8C8.5 4.41015 11.4101 1.5 15 1.5V-1.5C9.7533 -1.5 5.5 2.75329 5.5 8H8.5ZM8.5 92V8H5.5V92H8.5ZM15 98.5C11.4101 98.5 8.5 95.5899 8.5 92H5.5C5.5 97.2467 9.75329 101.5 15 101.5V98.5ZM371 98.5H15V101.5H371V98.5ZM377.5 92C377.5 95.5899 374.59 98.5 371 98.5V101.5C376.247 101.5 380.5 97.2467 380.5 92H377.5ZM377.5 80V92H380.5V80H377.5ZM379 78.5H376.5V81.5H379V78.5ZM376.5 78.5C377.052 78.5 377.5 78.9477 377.5 79.5H374.5C374.5 80.6046 375.395 81.5 376.5 81.5V78.5ZM377.5 79.5V74.5H374.5V79.5H377.5ZM377.5 74.5C377.5 75.0523 377.052 75.5 376.5 75.5V72.5C375.395 72.5 374.5 73.3954 374.5 74.5H377.5ZM376.5 75.5H379V72.5H376.5V75.5ZM377.5 62V74H380.5V62H377.5ZM376.5 63.5H379V60.5H376.5V63.5ZM374.5 61.5C374.5 62.6045 375.395 63.5 376.5 63.5V60.5C377.052 60.5 377.5 60.9477 377.5 61.5H374.5ZM374.5 56.5V61.5H377.5V56.5H374.5ZM376.5 54.5C375.395 54.5 374.5 55.3955 374.5 56.5H377.5C377.5 57.0523 377.052 57.5 376.5 57.5V54.5ZM379 54.5H376.5V57.5H379V54.5ZM377.5 44V56H380.5V44H377.5ZM376.5 45.5H379V42.5H376.5V45.5ZM374.5 43.5C374.5 44.6045 375.395 45.5 376.5 45.5V42.5C377.052 42.5 377.5 42.9477 377.5 43.5H374.5ZM374.5 38.5V43.5H377.5V38.5H374.5ZM376.5 36.5C375.395 36.5 374.5 37.3955 374.5 38.5H377.5C377.5 39.0523 377.052 39.5 376.5 39.5V36.5ZM379 36.5H376.5V39.5H379V36.5ZM377.5 26V38H380.5V26H377.5ZM376.5 27.5H379V24.5H376.5V27.5ZM374.5 25.5C374.5 26.6045 375.395 27.5 376.5 27.5V24.5C377.052 24.5 377.5 24.9477 377.5 25.5H374.5ZM374.5 23V25.5H377.5V23H374.5ZM374.5 20.5V23H377.5V20.5H374.5ZM374.5 17V20.5H377.5V17H374.5ZM379 15.5H376V18.5H379V15.5ZM377.5 8V17H380.5V8H377.5ZM371 1.5C374.59 1.5 377.5 4.41015 377.5 8H380.5C380.5 2.75329 376.247 -1.5 371 -1.5V1.5ZM15 1.5H371V-1.5H15V1.5Z" fill="#BD674C" mask="url(#path-5-inside-1)"/>
<rect width="48" height="100" fill="#FCD144"/>
</g>
<defs>
<filter id="filter0_dii" x="28" y="-12" width="358" height="128" filterUnits="userSpaceOnUse" color-interpolation-filters="sRGB">
<feFlood flood-opacity="0" result="BackgroundImageFix"/>
<feColorMatrix in="SourceAlpha" type="matrix" values="0 0 0 0 0 0 0 0 0 0 0 0 0 0 0 0 0 0 127 0" result="hardAlpha"/>
<feOffset dy="2"/>
<feGaussianBlur stdDeviation="10"/>
<feColorMatrix type="matrix" values="0 0 0 0 0.9125 0 0 0 0 0.559667 0 0 0 0 0.0304167 0 0 0 0.8 0"/>
<feBlend mode="normal" in2="BackgroundImageFix" result="effect1_dropShadow"/>
<feBlend mode="normal" in="SourceGraphic" in2="effect1_dropShadow" result="shape"/>
<feColorMatrix in="SourceAlpha" type="matrix" values="0 0 0 0 0 0 0 0 0 0 0 0 0 0 0 0 0 0 127 0" result="hardAlpha"/>
<feOffset dy="1"/>
<feGaussianBlur stdDeviation="1.5"/>
<feComposite in2="hardAlpha" operator="arithmetic" k2="-1" k3="1"/>
<feColorMatrix type="matrix" values="0 0 0 0 0.8875 0 0 0 0 0.690838 0 0 0 0 0.406771 0 0 0 0.5 0"/>
<feBlend mode="normal" in2="shape" result="effect2_innerShadow"/>
<feColorMatrix in="SourceAlpha" type="matrix" values="0 0 0 0 0 0 0 0 0 0 0 0 0 0 0 0 0 0 127 0" result="hardAlpha"/>
<feOffset/>
<feGaussianBlur stdDeviation="0.5"/>
<feComposite in2="hardAlpha" operator="arithmetic" k2="-1" k3="1"/>
<feColorMatrix type="matrix" values="0 0 0 0 1 0 0 0 0 1 0 0 0 0 1 0 0 0 0.5 0"/>
<feBlend mode="normal" in2="effect2_innerShadow" result="effect3_innerShadow"/>
</filter>
</defs>
</svg>
