<svg width="24" height="24" viewBox="0 0 24 24" fill="none" xmlns="http://www.w3.org/2000/svg">
<path d="M15.3894 8.92878C15.5867 8.98675 15.7957 8.99295 15.9962 8.94677C16.1966 8.90059 16.3818 8.80359 16.534 8.6651L21.6097 3.95488V7.88007C21.6097 8.19794 21.736 8.50279 21.9608 8.72755C22.1855 8.95232 22.4904 9.0786 22.8083 9.0786C22.9656 9.0786 23.1215 9.0476 23.2669 8.98736C23.4123 8.92713 23.5445 8.83885 23.6557 8.72755C23.767 8.61626 23.8553 8.48414 23.9156 8.33872C23.9758 8.19331 24.0068 8.03746 24.0068 7.88007V1.21025C24.0068 0.892379 23.8805 0.587528 23.6557 0.36276C23.431 0.137992 23.1261 0.0117191 22.8083 0.0117191H16.2523C15.9344 0.0117191 15.6296 0.137992 15.4048 0.36276C15.18 0.587528 15.0538 0.892379 15.0538 1.21025C15.0538 1.52812 15.18 1.83297 15.4048 2.05774C15.6296 2.28251 15.9344 2.40878 16.2523 2.40878H19.8479L14.9279 6.97518C14.782 7.11865 14.6753 7.29708 14.6179 7.49348C14.5605 7.68987 14.5543 7.8977 14.6 8.09715C14.6457 8.29661 14.7416 8.48105 14.8787 8.63292C15.0159 8.78479 15.1896 8.89902 15.3834 8.96474L15.3894 8.92878ZM1.19877 9.05463C1.35392 9.05618 1.50777 9.02616 1.65096 8.96641C1.79416 8.90666 1.92371 8.81842 2.03174 8.70705C2.25028 8.48678 2.37488 8.19033 2.37932 7.88007V3.95488L7.45509 8.6651C7.68626 8.87327 7.98931 8.9834 8.30019 8.97222C8.61108 8.96104 8.90543 8.82942 9.12105 8.60518C9.32742 8.37433 9.43644 8.07257 9.42527 7.76313C9.4141 7.45369 9.2836 7.16058 9.06112 6.94521L4.11119 2.37282H7.70678C7.86193 2.37437 8.01578 2.34436 8.15898 2.28461C8.30217 2.22486 8.43172 2.13662 8.53976 2.02525C8.64895 1.91932 8.73593 1.79268 8.7956 1.65274C8.85528 1.51281 8.88647 1.36238 8.88733 1.21025C8.89052 1.05309 8.86131 0.896956 8.80151 0.751583C8.74171 0.606209 8.65261 0.474711 8.53976 0.365285C8.31897 0.143112 8.01997 0.0162011 7.70678 0.0117191H1.19877C1.04061 0.0115938 0.883998 0.0427706 0.73795 0.103453C0.591902 0.164135 0.459307 0.253122 0.34781 0.365285C0.234959 0.474711 0.145857 0.606209 0.0860577 0.751583C0.0262587 0.896956 -0.00295554 1.05309 0.000235954 1.21025V7.88007C-0.000501668 8.03421 0.0299047 8.18692 0.089631 8.32903C0.149357 8.47114 0.237173 8.59971 0.34781 8.70705C0.457927 8.82065 0.590399 8.91019 0.736864 8.97001C0.883329 9.02984 1.04061 9.05865 1.19877 9.05463ZM1.19877 14.9334C1.35335 14.9321 1.50663 14.9616 1.64966 15.0203C1.79269 15.079 1.92258 15.1655 2.03174 15.275C2.25172 15.4968 2.37643 15.7956 2.37932 16.108V20.0332L7.45509 15.3229C7.69091 15.1753 7.97077 15.1142 8.24666 15.1503C8.52256 15.1864 8.77731 15.3174 8.96721 15.5207C9.15711 15.7241 9.27034 15.9872 9.28748 16.2649C9.30461 16.5426 9.22458 16.8177 9.06112 17.0428L4.11119 21.6152H7.70678C7.98103 21.6672 8.22854 21.8133 8.40659 22.0283C8.58464 22.2432 8.68207 22.5136 8.68207 22.7928C8.68207 23.0719 8.58464 23.3423 8.40659 23.5573C8.22854 23.7722 7.98103 23.9183 7.70678 23.9703H1.19877C1.04103 23.9712 0.884668 23.941 0.738642 23.8814C0.592616 23.8217 0.4598 23.7338 0.34781 23.6228C0.236267 23.5136 0.14797 23.383 0.0882367 23.2388C0.0285032 23.0946 -0.00143123 22.9398 0.000235954 22.7838V16.108C0.000235954 15.7901 0.126509 15.4853 0.351277 15.2605C0.576045 15.0357 0.880896 14.9094 1.19877 14.9094V14.9334ZM23.6233 15.299C23.3998 15.0829 23.1011 14.9622 22.7903 14.9622C22.4795 14.9622 22.1808 15.0829 21.9573 15.299C21.7373 15.5207 21.6126 15.8196 21.6097 16.1319V20.0571L16.534 15.3409C16.3035 15.1311 16.0004 15.0194 15.689 15.0293C15.5339 15.0342 15.3813 15.0702 15.2403 15.135C15.0993 15.1999 14.9727 15.2923 14.868 15.4068C14.6616 15.6377 14.5526 15.9394 14.5638 16.2489C14.5749 16.5583 14.7054 16.8514 14.9279 17.0668L19.8539 21.6332H16.2583C16.0307 21.6439 15.8108 21.7192 15.6244 21.8504C15.4381 21.9816 15.293 22.1632 15.2062 22.3739C15.1194 22.5846 15.0945 22.8157 15.1344 23.0401C15.1742 23.2645 15.2772 23.4728 15.4313 23.6407C15.6516 23.8593 15.948 23.9839 16.2583 23.9883H22.7723C23.0902 23.9883 23.395 23.862 23.6198 23.6373C23.8446 23.4125 23.9708 23.1076 23.9708 22.7898V16.1319C23.9679 15.8196 23.8432 15.5207 23.6233 15.299Z" fill="#AC4C06"/>
</svg>
