<svg width="16" height="16" viewBox="0 0 16 16" fill="none" xmlns="http://www.w3.org/2000/svg">
<circle cx="8" cy="8" r="7.25" stroke="#AC4C06" stroke-width="1.5"/>
<path d="M7.69334 12.8982C7.30434 12.8982 7.01734 12.7332 6.83234 12.4052C6.74168 12.2567 6.69372 12.0861 6.69372 11.9122C6.69372 11.7382 6.74168 11.5677 6.83234 11.4192C7.01734 11.0902 7.30434 10.9162 7.69334 10.8982C7.99034 10.9162 8.23034 11.0162 8.41534 11.2002C8.50718 11.2912 8.57927 11.4001 8.62711 11.5202C8.67494 11.6403 8.69749 11.769 8.69334 11.8982C8.69334 12.1812 8.60134 12.4182 8.41534 12.6112C8.23034 12.8022 7.99034 12.8982 7.69334 12.8982ZM8.29434 8.83119C8.29434 9.24519 8.12434 9.38119 7.70934 9.38119C7.29534 9.38119 7.01634 9.04619 7.01634 8.63119C7.01634 8.28211 6.98234 7.91119 7.31634 7.39819C7.59034 6.98019 8.04934 6.88819 8.44134 6.65619C8.83934 6.42119 9.10534 6.16119 9.24234 5.92819C9.39234 5.73219 9.35934 5.20919 9.35534 5.13519C9.23734 4.36319 8.63534 4.02019 7.70934 4.02019C6.86234 4.02019 6.34934 4.31219 6.24034 4.94819C6.13034 5.58319 6.06034 5.83219 5.80534 5.92819C5.55134 6.02419 5.40334 6.02619 5.19534 5.85119C4.98834 5.67619 4.97334 5.40119 5.02534 5.13519C5.26534 3.73319 6.20034 2.98619 7.74734 3.00019C9.59734 3.01719 10.4503 4.15319 10.4843 5.31119C10.5083 6.08519 10.0943 6.82719 8.96634 7.49519C8.77434 7.60819 8.64634 7.73119 8.56334 7.86119C8.44934 8.04019 8.23834 8.05419 8.23834 8.45519L8.29434 8.83119Z" fill="#AC4C06"/>
</svg>
