<svg width="18" height="18" viewBox="0 0 18 18" fill="none" xmlns="http://www.w3.org/2000/svg">
<path d="M9 0C4.0158 0 0 4.0158 0 9C0 13.9842 4.0158 18 9 18C13.9842 18 18 13.9842 18 9C18 4.0158 13.9842 0 9 0ZM13.3614 6.4386C13.2921 6.5079 13.2921 6.5772 13.2228 6.5772C13.0842 6.7158 12.9456 6.7851 12.807 6.8544C12.7377 6.8544 12.7377 6.9237 12.7377 6.993C12.807 7.7544 12.6684 8.5158 12.3912 9.2772C11.907 10.593 10.8684 11.6307 9.6219 12.2544C8.5833 12.8772 7.3377 13.0851 6.2298 12.8079C5.6763 12.7386 5.1912 12.5307 4.7763 12.2544L4.707 12.1851C4.707 12.1158 4.7763 12.0465 4.8456 12.0465C5.1921 12.0465 5.5377 11.9772 5.8842 11.8386C6.2307 11.7 6.5763 11.4921 6.8535 11.2851L6.9228 11.2158C6.9228 11.1465 6.9228 11.0772 6.8535 11.0772C6.5763 11.0079 6.3693 10.8693 6.1614 10.7307C5.8842 10.5921 5.6772 10.3149 5.5386 10.0386V9.9693C5.5386 9.9 5.6079 9.8307 5.6772 9.8307H5.8851C5.9544 9.8307 5.9544 9.8307 5.9544 9.7614C6.0237 9.6921 5.9544 9.6228 5.8851 9.5535C5.6079 9.4149 5.4009 9.207 5.193 9C4.9158 8.7228 4.7772 8.3772 4.7772 8.0307V7.9614C4.7772 7.8921 4.9158 7.8921 4.9158 7.8921C4.9851 7.8921 5.0544 7.9614 5.1237 7.9614H5.2623C5.3316 7.9614 5.3316 7.9614 5.4009 7.8921C5.4702 7.8228 5.4702 7.7535 5.4009 7.6842C5.1237 7.407 4.9167 7.0614 4.8474 6.6456C4.7781 6.2991 4.8474 5.8842 4.986 5.5377V5.4684C4.8474 5.5377 4.9167 5.5377 4.986 5.607C5.4702 6.0912 5.9553 6.507 6.5781 6.8535C7.2702 7.2 8.0316 7.407 8.7939 7.407C8.8632 7.407 8.9325 7.3377 8.9325 7.2684C8.9325 6.8526 9.0711 5.4684 10.3167 5.1219C10.9395 4.914 11.7009 5.0526 12.186 5.6061C12.186 5.6061 12.2553 5.6754 12.3246 5.6754C12.4632 5.6754 12.6018 5.6061 12.8088 5.6061C12.9474 5.5368 13.086 5.5368 13.2246 5.4675H13.3632C13.4325 5.4675 13.4325 5.6061 13.4325 5.6754C13.3632 5.814 13.2246 5.9526 13.086 6.0912L13.0167 6.1605C12.9474 6.1605 12.9474 6.2298 12.9474 6.2991C12.9474 6.3684 13.0167 6.4377 13.086 6.4377C13.1553 6.4377 13.2246 6.4377 13.3632 6.3684H13.5C13.4307 6.3 13.4307 6.4386 13.3614 6.4386Z" fill="#FFF176" fill-opacity="0.4"/>
</svg>
