<svg width="28" height="28" viewBox="0 0 28 28" fill="none" xmlns="http://www.w3.org/2000/svg">
<path d="M0 7C0 3.134 3.134 0 7 0H21C24.866 0 28 3.134 28 7V21C28 24.866 24.866 28 21 28H7C3.134 28 0 24.866 0 21V7Z" fill="white"/>
<path fill-rule="evenodd" clip-rule="evenodd" d="M21 0.291667H7C3.29509 0.291667 0.291667 3.29509 0.291667 7V21C0.291667 24.7049 3.29509 27.7083 7 27.7083H21C24.7049 27.7083 27.7083 24.7049 27.7083 21V7C27.7083 3.29509 24.7049 0.291667 21 0.291667ZM7 0C3.134 0 0 3.134 0 7V21C0 24.866 3.134 28 7 28H21C24.866 28 28 24.866 28 21V7C28 3.134 24.866 0 21 0H7Z" fill="#E7E3EB"/>
<path fill-rule="evenodd" clip-rule="evenodd" d="M19.3831 12.7483C18.9265 12.2917 18.9265 11.5514 19.3831 11.0948C19.8397 10.6382 20.5799 10.6382 21.0365 11.0948C21.4931 11.5514 21.4931 12.2917 21.0365 12.7483C20.5799 13.2049 19.8397 13.2049 19.3831 12.7483ZM15.4561 16.6753C15.1136 16.3329 15.1136 15.7776 15.4561 15.4352C15.7985 15.0928 16.3537 15.0928 16.6962 15.4352C17.0386 15.7776 17.0386 16.3329 16.6962 16.6753C16.3537 17.0178 15.7985 17.0178 15.4561 16.6753ZM21.6566 14.6084C21.3142 14.266 21.3142 13.7108 21.6566 13.3684C21.999 13.0259 22.5542 13.0259 22.8967 13.3684C23.2392 13.7108 23.2392 14.266 22.8967 14.6084C22.5542 14.9509 21.999 14.9509 21.6566 14.6084ZM19.5898 16.6753C19.2473 16.3329 19.2473 15.7776 19.5898 15.4352C19.9322 15.0928 20.4874 15.0928 20.8298 15.4352C21.1723 15.7776 21.1723 16.3329 20.8298 16.6753C20.4874 17.0178 19.9322 17.0178 19.5898 16.6753ZM23.9301 16.4686C23.7018 16.2403 23.7018 15.8702 23.9301 15.6418C24.1584 15.4136 24.5286 15.4136 24.7568 15.6418C24.9852 15.8702 24.9852 16.2403 24.7568 16.4686C24.5286 16.6969 24.1584 16.6969 23.9301 16.4686ZM21.8632 18.5354C21.635 18.3072 21.635 17.937 21.8632 17.7087C22.0916 17.4804 22.4617 17.4804 22.69 17.7087C22.9183 17.937 22.9183 18.3072 22.69 18.5354C22.4617 18.7638 22.0916 18.7638 21.8632 18.5354ZM17.3162 14.8151C16.8596 14.3585 16.8596 13.6183 17.3162 13.1617C17.7728 12.7051 18.5131 12.7051 18.9697 13.1617C19.4263 13.6183 19.4263 14.3585 18.9697 14.8151C18.5131 15.2717 17.7728 15.2717 17.3162 14.8151ZM17.3162 10.6814C16.8596 10.2249 16.8596 9.48456 17.3162 9.02795C17.7728 8.57141 18.5131 8.57141 18.9697 9.02795C19.4263 9.48456 19.4263 10.2249 18.9697 10.6814C18.5131 11.138 17.7728 11.138 17.3162 10.6814ZM15.2494 12.7483C14.7928 12.2917 14.7928 11.5514 15.2494 11.0948C15.706 10.6382 16.4463 10.6382 16.9028 11.0948C17.3594 11.5514 17.3594 12.2917 16.9028 12.7483C16.4463 13.2049 15.706 13.2049 15.2494 12.7483ZM11.0965 12.7483C10.6399 12.2917 10.6399 11.5514 11.0965 11.0948C11.5531 10.6382 12.2934 10.6382 12.7499 11.0948C13.2065 11.5514 13.2065 12.2917 12.7499 12.7483C12.2934 13.2049 11.5531 13.2049 11.0965 12.7483ZM7.16953 16.6753C6.82706 16.3329 6.82706 15.7776 7.16953 15.4352C7.51197 15.0928 8.06714 15.0928 8.40958 15.4352C8.75202 15.7776 8.75202 16.3329 8.40958 16.6753C8.06714 17.0178 7.51197 17.0178 7.16953 16.6753ZM13.37 14.6084C13.0276 14.266 13.0276 13.7108 13.37 13.3684C13.7124 13.0259 14.2677 13.0259 14.6101 13.3684C14.9526 13.7108 14.9526 14.266 14.6101 14.6084C14.2677 14.9509 13.7124 14.9509 13.37 14.6084ZM11.3032 16.6753C10.9607 16.3329 10.9607 15.7776 11.3032 15.4352C11.6456 15.0928 12.2009 15.0928 12.5433 15.4352C12.8857 15.7776 12.8857 16.3329 12.5433 16.6753C12.2009 17.0178 11.6456 17.0178 11.3032 16.6753ZM3.24251 16.4686C3.01421 16.2403 3.01421 15.8702 3.24251 15.6418C3.4708 15.4136 3.84095 15.4136 4.06925 15.6418C4.29754 15.8702 4.29754 16.2403 4.06925 16.4686C3.84095 16.6969 3.4708 16.6969 3.24251 16.4686ZM5.30935 18.5354C5.08105 18.3072 5.08105 17.937 5.30935 17.7087C5.53764 17.4804 5.90778 17.4804 6.13608 17.7087C6.36438 17.937 6.36438 18.3072 6.13608 18.5354C5.90778 18.7638 5.53764 18.7638 5.30935 18.5354ZM13.5767 18.5354C13.3484 18.3072 13.3484 17.937 13.5767 17.7087C13.805 17.4804 14.1751 17.4804 14.4034 17.7087C14.6317 17.937 14.6317 18.3072 14.4034 18.5354C14.1751 18.7638 13.805 18.7638 13.5767 18.5354ZM5.10266 14.6084C4.76022 14.266 4.76022 13.7108 5.10266 13.3684C5.44511 13.0259 6.00032 13.0259 6.34276 13.3684C6.68521 13.7108 6.68521 14.266 6.34276 14.6084C6.00032 14.9509 5.44511 14.9509 5.10266 14.6084ZM9.02964 14.8151C8.57303 14.3585 8.57303 13.6183 9.02964 13.1617C9.48625 12.7051 10.2265 12.7051 10.6831 13.1617C11.1397 13.6183 11.1397 14.3585 10.6831 14.8151C10.2265 15.2717 9.48625 15.2717 9.02964 14.8151ZM9.02964 10.6814C8.57303 10.2249 8.57303 9.48456 9.02964 9.02795C9.48625 8.57141 10.2265 8.57141 10.6831 9.02795C11.1397 9.48456 11.1397 10.2249 10.6831 10.6814C10.2265 11.138 9.48625 11.138 9.02964 10.6814ZM6.96282 12.7483C6.50623 12.2917 6.50623 11.5514 6.96282 11.0948C7.41943 10.6382 8.15968 10.6382 8.61629 11.0948C9.0729 11.5514 9.0729 12.2917 8.61629 12.7483C8.15968 13.2049 7.41943 13.2049 6.96282 12.7483Z" fill="#1D222A"/>
</svg>
