<svg width="28" height="28" viewBox="0 0 28 28" fill="none" xmlns="http://www.w3.org/2000/svg">
<rect width="28" height="28" rx="4" fill="#5E3B09"/>
<g clip-path="url(#clip0)">
<path d="M19.1218 13.2579V9.48198C19.1218 9.48198 19.1098 8.78999 19.7598 8.76799V8.022H18.8938C18.8938 8.022 18.2878 7.946 18.2438 8.63799V13.4319L19.1218 13.2579ZM9.79394 13.7879C11.8979 13.7879 13.6019 15.4939 13.6019 17.5978C13.6019 18.0979 13.5034 18.5931 13.312 19.0551C13.1206 19.5171 12.8401 19.9369 12.4865 20.2905C12.1329 20.6441 11.7132 20.9245 11.2512 21.1159C10.7892 21.3073 10.294 21.4058 9.79393 21.4058C9.29387 21.4058 8.7987 21.3073 8.3367 21.1159C7.8747 20.9245 7.45492 20.6441 7.10132 20.2905C6.74772 19.9369 6.46723 19.5171 6.27586 19.0551C6.08449 18.5931 5.986 18.0979 5.986 17.5978C5.986 15.4939 7.68997 13.7879 9.79392 13.7879H9.79394ZM9.79394 19.8698C10.2433 19.8698 10.6825 19.7365 11.0562 19.4869C11.4298 19.2373 11.721 18.8824 11.893 18.4673C12.0649 18.0521 12.1099 17.5953 12.0222 17.1546C11.9346 16.7139 11.7182 16.3091 11.4005 15.9913C11.0827 15.6736 10.6779 15.4572 10.2372 15.3695C9.79646 15.2819 9.33964 15.3269 8.9245 15.4988C8.50935 15.6708 8.15452 15.962 7.90488 16.3356C7.65523 16.7092 7.52198 17.1485 7.52198 17.5978C7.52198 18.2004 7.76135 18.7783 8.18742 19.2044C8.6135 19.6304 9.19138 19.8698 9.79394 19.8698Z" fill="white"/>
<path d="M5.98626 6.59375L15.4741 6.60375V7.44973L14.7441 7.45373V11.6897L18.7101 11.6677H22V17.2076H12.8582C12.7682 15.6636 11.4922 14.4376 9.92421 14.4376C8.35624 14.4376 7.08022 15.6636 6.99023 17.2076H6.70033V7.42574H5.98634L5.98626 6.59375ZM7.99225 10.9257H13.5761V8.11773H7.99225V10.9257Z" fill="white"/>
<path d="M18.8238 16.2012C19.3384 16.2012 19.8415 16.3538 20.2694 16.6397C20.6973 16.9256 21.0308 17.332 21.2277 17.8074C21.4247 18.2828 21.4762 18.806 21.3758 19.3107C21.2754 19.8155 21.0276 20.2791 20.6637 20.643C20.2998 21.0069 19.8362 21.2547 19.3314 21.3551C18.8267 21.4555 18.3035 21.404 17.8281 21.207C17.3527 21.0101 16.9463 20.6766 16.6604 20.2487C16.3745 19.8208 16.2219 19.3177 16.2219 18.8031C16.2216 18.4614 16.2887 18.1229 16.4194 17.8071C16.5501 17.4913 16.7417 17.2043 16.9834 16.9627C17.225 16.721 17.512 16.5294 17.8278 16.3987C18.1436 16.268 18.4821 16.2009 18.8238 16.2012ZM18.8238 20.0791C19.0762 20.0791 19.3229 20.0043 19.5327 19.8641C19.7426 19.7239 19.9061 19.5246 20.0027 19.2914C20.0993 19.0583 20.1245 18.8017 20.0753 18.5542C20.0261 18.3067 19.9045 18.0793 19.7261 17.9009C19.5476 17.7224 19.3203 17.6009 19.0728 17.5517C18.8252 17.5024 18.5687 17.5277 18.3355 17.6243C18.1024 17.7209 17.9031 17.8844 17.7629 18.0942C17.6227 18.3041 17.5478 18.5508 17.5478 18.8031C17.5478 19.1415 17.6823 19.4661 17.9216 19.7054C18.1609 19.9447 18.4854 20.0791 18.8238 20.0791Z" fill="white"/>
</g>
<defs>
<clipPath id="clip0">
<rect width="16" height="16" fill="white" transform="matrix(-1 0 0 1 22 6)"/>
</clipPath>
</defs>
</svg>
