<svg width="36" height="36" viewBox="0 0 36 36" fill="none" xmlns="http://www.w3.org/2000/svg">
<g filter="url(#filter0_d)">
<rect x="4" width="28" height="28" rx="4" fill="#A26CB5" fill-opacity="0.6"/>
</g>
<path d="M10.5856 6.125H12.4137C12.5298 6.125 12.6247 6.21992 12.6247 6.33594V6.53281C12.7653 6.67344 13.0079 6.87734 13.2505 6.87734C13.6196 6.87734 13.7708 6.30078 14.168 6.23047C14.5653 6.16016 15.1243 6.125 15.5005 6.125C15.8766 6.125 17.3286 6.14961 19.0864 6.88086C20.8442 7.61211 21.6071 9.1625 21.6282 9.74258C21.6387 10.0484 21.5333 10.4844 21.2766 10.1328C21.02 9.78125 20.0356 8.6457 19.2481 8.56133C18.4641 8.48047 17.6415 8.58945 17.0087 9.16602C16.4005 9.71797 16.2598 10.2488 16.2598 11.75L16.4919 11.8203C16.643 11.866 16.738 12.0207 16.738 12.1367C16.738 12.1367 16.745 12.3652 16.745 14.6117C16.745 17.9375 17.1247 21.6641 17.1247 21.6641C17.1247 21.7801 17.0298 21.875 16.9137 21.875H13.9606C13.8446 21.875 13.7497 21.7801 13.7497 21.6641C13.7497 21.6641 14.1294 17.9375 14.1294 14.6117C14.1294 12.3652 14.1364 12.1367 14.1364 12.1367C14.1364 12.0207 14.2173 11.8625 14.3825 11.8203L14.6637 11.75C14.6637 10.407 14.6778 9.85156 14.4423 9.4332C14.1962 8.99727 13.6583 8.62812 13.3981 8.55078C13.1907 8.4875 12.8356 8.59648 12.6247 8.7793V9.28906C12.6247 9.40508 12.5298 9.5 12.4137 9.5H10.5856C10.4696 9.5 10.3747 9.40508 10.3747 9.28906V6.33594C10.3747 6.21992 10.4696 6.125 10.5856 6.125Z" fill="white"/>
<path d="M25.434 10.736V13.376H27.502C27.7367 13.376 27.8907 13.42 27.964 13.508C28.052 13.5813 28.096 13.7353 28.096 13.97V14.652H25.434V16.742C25.434 16.9767 25.39 17.138 25.302 17.226C25.2287 17.2993 25.0747 17.336 24.84 17.336H24.158V14.652H22.09C21.8553 14.652 21.694 14.6153 21.606 14.542C21.5327 14.454 21.496 14.2927 21.496 14.058V13.376H24.158V11.33C24.158 11.0953 24.1947 10.9413 24.268 10.868C24.356 10.78 24.5173 10.736 24.752 10.736H25.434Z" fill="white"/>
<defs>
<filter id="filter0_d" x="0" y="0" width="36" height="36" filterUnits="userSpaceOnUse" color-interpolation-filters="sRGB">
<feFlood flood-opacity="0" result="BackgroundImageFix"/>
<feColorMatrix in="SourceAlpha" type="matrix" values="0 0 0 0 0 0 0 0 0 0 0 0 0 0 0 0 0 0 127 0" result="hardAlpha"/>
<feOffset dy="4"/>
<feGaussianBlur stdDeviation="2"/>
<feColorMatrix type="matrix" values="0 0 0 0 0.552941 0 0 0 0 0.360784 0 0 0 0 0.184314 0 0 0 1 0"/>
<feBlend mode="normal" in2="BackgroundImageFix" result="effect1_dropShadow"/>
<feBlend mode="normal" in="SourceGraphic" in2="effect1_dropShadow" result="shape"/>
</filter>
</defs>
</svg>
