<svg width="28" height="28" viewBox="0 0 28 28" fill="none" xmlns="http://www.w3.org/2000/svg">
<rect width="28" height="28" rx="4" fill="#A26CB5" fill-opacity="0.6"/>
<path d="M6.58561 6.125H8.41374C8.52975 6.125 8.62467 6.21992 8.62467 6.33594V6.53281C8.7653 6.67344 9.00788 6.87734 9.25046 6.87734C9.6196 6.87734 9.77077 6.30078 10.168 6.23047C10.5653 6.16016 11.1243 6.125 11.5005 6.125C11.8766 6.125 13.3286 6.14961 15.0864 6.88086C16.8442 7.61211 17.6071 9.1625 17.6282 9.74258C17.6387 10.0484 17.5333 10.4844 17.2766 10.1328C17.02 9.78125 16.0356 8.6457 15.2481 8.56133C14.4641 8.48047 13.6415 8.58945 13.0087 9.16602C12.4005 9.71797 12.2598 10.2488 12.2598 11.75L12.4919 11.8203C12.643 11.866 12.738 12.0207 12.738 12.1367C12.738 12.1367 12.745 12.3652 12.745 14.6117C12.745 17.9375 13.1247 21.6641 13.1247 21.6641C13.1247 21.7801 13.0298 21.875 12.9137 21.875H9.96061C9.8446 21.875 9.74967 21.7801 9.74967 21.6641C9.74967 21.6641 10.1294 17.9375 10.1294 14.6117C10.1294 12.3652 10.1364 12.1367 10.1364 12.1367C10.1364 12.0207 10.2173 11.8625 10.3825 11.8203L10.6637 11.75C10.6637 10.407 10.6778 9.85156 10.4423 9.4332C10.1962 8.99727 9.65827 8.62812 9.39811 8.55078C9.19069 8.4875 8.83561 8.59648 8.62467 8.7793V9.28906C8.62467 9.40508 8.52975 9.5 8.41374 9.5H6.58561C6.4696 9.5 6.37467 9.40508 6.37467 9.28906V6.33594C6.37467 6.21992 6.4696 6.125 6.58561 6.125Z" fill="white"/>
<path d="M17.452 13.376H23.458C23.6927 13.376 23.8467 13.42 23.92 13.508C24.008 13.5813 24.052 13.7353 24.052 13.97V14.652H18.046C17.8113 14.652 17.65 14.6153 17.562 14.542C17.4887 14.454 17.452 14.2927 17.452 14.058V13.376Z" fill="white"/>
</svg>
