<svg width="28" height="28" viewBox="0 0 28 28" fill="none" xmlns="http://www.w3.org/2000/svg">
<path d="M21.8673 8.97283C21.058 9.79698 20.1883 10.6883 19.1072 11.7932C17.6215 10.206 16.166 8.71643 14.789 7.15971C14.2093 6.5065 13.8408 6.51261 13.2671 7.15361C11.872 8.69812 10.4165 10.1816 8.93079 11.7505C7.9222 10.6272 7.08272 9.6932 6.27344 8.78969C8.79792 6.26842 11.4553 3.61895 14.0764 1C16.5284 3.51517 19.1495 6.20127 21.8673 8.97283Z" fill="#FFD657"/>
<path d="M6.2666 19.1136C7.05777 18.32 7.93953 17.4287 9.11721 16.2383C10.4942 17.7584 11.9497 19.2968 13.3207 20.9084C13.8823 21.5739 14.2447 21.4762 14.7701 20.9329C16.2256 19.4494 17.7174 17.9904 19.2152 16.5069C20.0546 17.4165 20.9183 18.3505 21.7819 19.2846C19.2514 21.7936 16.6061 24.4126 13.991 27.001C11.4968 24.4553 8.8696 21.7753 6.2666 19.1136Z" fill="#FFD657"/>
<path d="M14.0758 11.2207C14.9877 12.1242 15.8937 13.0216 16.7694 13.8946C15.8151 14.8653 14.9092 15.7871 13.9127 16.8066C13.1034 15.8664 12.264 14.8958 11.3701 13.8641C12.1311 13.1193 13.0672 12.2097 14.0758 11.2207Z" fill="#FFD657"/>
<path d="M3.66943 11.3477C4.5693 12.2206 5.4873 13.1119 6.38113 13.9849C5.46314 14.9128 4.5693 15.8225 3.59696 16.8053C2.7454 15.8469 1.89988 14.8884 1 13.875C1.82136 13.0936 2.75144 12.2084 3.66943 11.3477Z" fill="#FFD657"/>
<path d="M24.4206 11.2383C25.3145 12.1662 26.1842 13.0697 26.9995 13.9122C26.1177 14.8096 25.2058 15.7314 24.2515 16.7021C23.4302 15.8779 22.5363 14.9744 21.6123 14.0465C22.5665 13.088 23.4725 12.1845 24.4206 11.2383Z" fill="#FFD657"/>
</svg>
